<?xml version="1.0" encoding="utf-8"?>
<!-- Generated by IcoMoon.io -->
<svg xmlns="http://www.w3.org/2000/svg" style="display:none;">
  <!-- Стрелка вниз -->
  <symbol id="icon-arrow-down" viewBox="0 0 24 24">
    <path fill="currentColor" d="M7 10l5 5 5-5z"/>
  </symbol>

  <!-- Стрелка вверх -->
  <symbol id="icon-arrow-up" viewBox="0 0 24 24">
    <path fill="currentColor" d="M7 14l5-5 5 5z"/>
  </symbol>

  <!-- Календарь -->
  <symbol id="icon-calendar" viewBox="0 0 24 24">
    <path fill="currentColor" d="M3 4h18v18H3V4zm2 2v14h14V6H5zm2-2h2v2H7V4zm8 0h2v2h-2V4z"/>
  </symbol>

  <!-- Машина -->
  <symbol id="icon-car" viewBox="0 0 24 24">
    <path fill="currentColor" d="M3 13l1-4h16l1 4H3zm2-3l.5 2h11L19 10H5zm1 5a1 1 0 100 2 1 1 0 000-2zm10 0a1 1 0 100 2 1 1 0 000-2z"/>
  </symbol>

  <!-- Топливный насос -->
  <symbol id="icon-fuel-pump" viewBox="0 0 24 24">
    <path fill="currentColor" d="M6 2h9a1 1 0 011 1v16a1 1 0 01-1 1H6a1 1 0 01-1-1V3a1 1 0 011-1zm1 2v14h7V4H7zm9 0h2v8h-2V4z"/>
  </symbol>

  <!-- Шестеренка -->
  <symbol id="icon-gear" viewBox="0 0 24 24">
    <path fill="currentColor" d="M12 8a4 4 0 100 8 4 4 0 000-8zm0-6a1 1 0 011 1v1.07a8.01 8.01 0 014.29 1.25l.76-.76a1 1 0 011.41 1.42l-.77.77a8.01 8.01 0 011.25 4.29H21a1 1 0 110 2h-1.07a8.01 8.01 0 01-1.25 4.29l.77.77a1 1 0 11-1.42 1.41l-.76-.76A8.01 8.01 0 0113 20.93V22a1 1 0 11-2 0v-1.07a8.01 8.01 0 01-4.29-1.25l-.77.77a1 1 0 11-1.41-1.42l.76-.76A8.01 8.01 0 014.07 13H3a1 1 0 110-2h1.07a8.01 8.01 0 011.25-4.29l-.77-.77a1 1 0 011.42-1.41l.76.76A8.01 8.01 0 0111 4.07V3a1 1 0 011-1z"/>
  </symbol>

  <!-- Сердце -->
  <symbol id="icon-heart" viewBox="0 0 24 24">
    <path fill="currentColor" d="M12 21.35l-1.45-1.32C5.4 1">

<symbol id="icon-check-circle" viewBox="0 0 32 32">
  <path fill="currentColor" d="M16 30c-3.713 0-7.274-1.475-9.899-4.101s-4.101-6.186-4.101-9.899 1.475-7.274 4.101-9.899c2.626-2.626 6.186-4.101 9.899-4.101s7.274 1.475 9.899 4.101c2.626 2.626 4.101 6.186 4.101 9.899s-1.475 7.274-4.101 9.899c-2.625 2.626-6.186 4.101-9.899 4.101zM16 32c4.243 0 8.313-1.686 11.314-4.686s4.686-7.070 4.686-11.314c0-4.243-1.686-8.313-4.686-11.314s-7.070-4.686-11.314-4.686c-4.243 0-8.313 1.686-11.314 4.686s-4.686 7.070-4.686 11.314c0 4.243 1.686 8.313 4.686 11.314s7.070 4.686 11.314 4.686z"/>
  <path fill="currentColor" d="M21.94 9.94l-0.040 0.044-6.946 8.85-4.186-4.188c-0.284-0.265-0.66-0.409-1.049-0.402s-0.759 0.164-1.034 0.439c-0.275 0.275-0.432 0.646-0.439 1.034s0.137 0.765 0.402 1.049l5.292 5.294c0.143 0.142 0.312 0.254 0.499 0.33s0.387 0.112 0.588 0.108c0.201-0.004 0.4-0.048 0.584-0.13s0.349-0.2 0.487-0.348l7.984-9.98c0.272-0.285 0.42-0.666 0.414-1.060s-0.168-0.77-0.45-1.046c-0.282-0.276-0.66-0.43-1.054-0.429s-0.772 0.157-1.052 0.435z"/>
</symbol>

<symbol id="icon-location" viewBox="0 0 32 32">
  <path fill="currentColor" d="M23.061 16.762c-0.982 1.991-2.314 3.975-3.675 5.756-1.293 1.678-2.673 3.287-4.136 4.819-1.463-1.532-2.844-3.141-4.136-4.819-1.361-1.781-2.692-3.765-3.675-5.756-0.994-2.012-1.564-3.896-1.564-5.512 0-2.486 0.988-4.871 2.746-6.629s4.143-2.746 6.629-2.746c2.486 0 4.871 0.988 6.629 2.746s2.746 4.143 2.746 6.629c0 1.616-0.572 3.501-1.564 5.512zM15.25 30c0 0 11.25-10.661 11.25-18.75 0-2.984-1.185-5.845-3.295-7.955s-4.971-3.295-7.955-3.295c-2.984 0-5.845 1.185-7.955 3.295s-3.295 4.971-3.295 7.955c0 8.089 11.25 18.75 11.25 18.75z"/>
  <path fill="currentColor" d="M15.25 15c-0.995 0-1.948-0.395-2.652-1.098s-1.098-1.657-1.098-2.652c0-0.995 0.395-1.948 1.098-2.652s1.657-1.098 2.652-1.098c0.995 0 1.948 0.395 2.652 1.098s1.098 1.657 1.098 2.652c0 0.995-0.395 1.948-1.098 2.652s-1.657 1.098-2.652 1.098zM15.25 16.875c1.492 0 2.923-0.593 3.977-1.648s1.648-2.486 1.648-3.977c0-1.492-0.593-2.923-1.648-3.977s-2.486-1.648-3.977-1.648c-1.492 0-2.923 0.593-3.977 1.648s-1.648 2.486-1.648 3.977c0 1.492 0.593 2.923 1.648 3.977s2.486 1.648 3.977 1.648z"/>
</symbol>


<symbol id="icon-logo" viewBox="0 0 208 32">
  <path fill="#3470ff" d="M202.142 15.291c-1.366 0-2.614 0.079-3.744 0.236s-2.351 0.473-3.665 0.946v15.054h-6.857v-22.384h5.084l1.025 2.64c1.366-1.103 2.706-1.892 4.020-2.365s2.694-0.709 4.138-0.709v6.581z"></path>
  <path fill="#3470ff" d="M184.597 31.291c-0.841 0.184-1.59 0.315-2.246 0.394-0.63 0.079-1.379 0.118-2.246 0.118-2.522 0-4.177-0.814-4.966-2.443-1.103 0.814-2.207 1.432-3.31 1.852s-2.312 0.631-3.626 0.631c-1.182 0-2.246-0.25-3.192-0.749s-1.682-1.169-2.207-2.010c-0.525-0.841-0.788-1.76-0.788-2.759 0-1.682 0.42-3.008 1.261-3.98 0.867-0.998 2.023-1.787 3.468-2.365 1.445-0.604 3.639-1.327 6.581-2.167l1.182-0.355v-0.158c0-2.417-1.103-3.626-3.31-3.626-1.077 0-2.233 0.236-3.468 0.709s-2.654 1.235-4.256 2.286l-1.301-4.729c1.787-1.025 3.599-1.826 5.438-2.404 1.865-0.578 3.836-0.867 5.911-0.867 2.522 0 4.453 0.683 5.793 2.049 1.366 1.366 2.049 3.704 2.049 7.015v7.488c0 0.578 0.118 0.998 0.355 1.261 0.237 0.236 0.618 0.355 1.143 0.355 0.499 0 0.998-0.066 1.498-0.197l0.236 4.65zM168.873 25.419c0 0.525 0.131 0.906 0.394 1.143 0.289 0.236 0.736 0.355 1.34 0.355 1.103 0 2.404-0.473 3.901-1.419v-4.177l-0.591 0.197c-1.971 0.709-3.31 1.34-4.020 1.892-0.683 0.526-1.025 1.195-1.025 2.010z"></path>
  <path fill="#3470ff" d="M150.364 32c-3.258 0-6.016-0.631-8.276-1.892-2.26-1.287-3.954-2.982-5.084-5.084-1.103-2.128-1.655-4.44-1.655-6.936 0-2.47 0.578-4.755 1.734-6.857 1.182-2.102 2.929-3.783 5.241-5.044s5.097-1.892 8.355-1.892c3.048 0 5.728 0.591 8.040 1.773l-1.419 4.966c-0.972-0.499-1.984-0.893-3.034-1.182-1.051-0.315-2.246-0.473-3.586-0.473-1.708 0-3.192 0.394-4.453 1.182-1.235 0.762-2.181 1.813-2.837 3.153-0.631 1.314-0.946 2.785-0.946 4.414 0 2.575 0.683 4.69 2.049 6.345 1.366 1.629 3.324 2.443 5.872 2.443 2.181 0 4.532-0.539 7.054-1.616l1.34 4.847c-1.077 0.552-2.365 0.998-3.862 1.34s-3.008 0.512-4.532 0.512z"></path>
  <path fill="#101828" d="M123.567 0h6.857v31.527h-6.857v-31.527z"></path>
  <path fill="#101828" d="M120.287 31.291c-0.841 0.184-1.59 0.315-2.246 0.394-0.63 0.079-1.379 0.118-2.246 0.118-2.522 0-4.177-0.814-4.966-2.443-1.103 0.814-2.207 1.432-3.31 1.852s-2.312 0.631-3.626 0.631c-1.182 0-2.246-0.25-3.192-0.749s-1.682-1.169-2.207-2.010c-0.525-0.841-0.788-1.76-0.788-2.759 0-1.682 0.42-3.008 1.261-3.98 0.867-0.998 2.023-1.787 3.468-2.365 1.445-0.604 3.639-1.327 6.581-2.167l1.182-0.355v-0.158c0-2.417-1.103-3.626-3.31-3.626-1.077 0-2.233 0.236-3.468 0.709s-2.654 1.235-4.256 2.286l-1.301-4.729c1.787-1.025 3.599-1.826 5.439-2.404 1.865-0.578 3.836-0.867 5.911-0.867 2.522 0 4.453 0.683 5.793 2.049 1.366 1.366 2.049 3.704 2.049 7.015v7.488c0 0.578 0.118 0.998 0.355 1.261 0.236 0.236 0.617 0.355 1.143 0.355 0.499 0 0.998-0.066 1.498-0.197l0.236 4.65zM104.563 25.419c0 0.525 0.131 0.906 0.394 1.143 0.289 0.236 0.736 0.355 1.34 0.355 1.103 0 2.404-0.473 3.901-1.419v-4.177l-0.591 0.197c-1.97 0.709-3.31 1.34-4.020 1.892-0.683 0.526-1.025 1.195-1.025 2.010z"></path>
  <path fill="#101828" d="M95.249 30.069c-0.788 0.552-1.734 0.985-2.837 1.301-1.077 0.289-2.128 0.433-3.153 0.433-2.785 0-4.86-0.604-6.227-1.813-1.366-1.235-2.049-2.995-2.049-5.281v-10.719h-3.35v-2.877l4.217-1.695 1.892-6.030h4.099v5.754h6.305v4.847h-6.305v9.064c0 1.393 0.223 2.378 0.67 2.956s1.117 0.867 2.010 0.867c1.156 0 2.378-0.342 3.665-1.025l1.064 4.217z"></path>
  <path fill="#101828" d="M66.38 8.67c2.916 0 4.926 0.775 6.030 2.325 1.13 1.55 1.695 3.783 1.695 6.7v13.833h-6.857v-12.966c0-1.839-0.223-3.113-0.67-3.823-0.42-0.709-1.248-1.064-2.483-1.064-1.34 0-2.706 0.447-4.099 1.34v16.512h-6.857v-22.384h5.084l0.709 1.852c2.575-1.55 5.057-2.325 7.448-2.325z"></path>
  <path fill="#101828" d="M34.057 21.596c0.131 1.865 0.591 3.245 1.379 4.138s1.997 1.34 3.626 1.34c1.209 0 2.325-0.21 3.35-0.63 1.051-0.447 2.246-1.103 3.586-1.97l1.852 4.335c-1.392 1.13-2.772 1.944-4.138 2.443s-2.929 0.749-4.69 0.749c-2.601 0-4.782-0.499-6.542-1.498-1.76-1.025-3.074-2.404-3.941-4.138-0.841-1.76-1.261-3.757-1.261-5.99 0-3.547 0.998-6.384 2.995-8.512s4.913-3.192 8.749-3.192c3.048 0 5.36 0.828 6.936 2.483 1.603 1.629 2.417 3.954 2.443 6.975 0 1.182-0.171 2.338-0.512 3.468h-13.833zM41.741 17.143c0.026-0.158 0.039-0.368 0.039-0.631-0.026-1.077-0.315-1.892-0.867-2.443-0.552-0.578-1.314-0.867-2.286-0.867-2.312 0-3.757 1.314-4.335 3.941h7.448z"></path>
  <path fill="#101828" d="M10.877 21.675h-3.783v9.852h-7.094v-26.798h10.719c3.836 0 6.634 0.657 8.394 1.97 1.76 1.287 2.64 3.323 2.64 6.108 0 3.626-1.327 6.056-3.98 7.291l7.527 11.429h-8.197l-6.227-9.852zM7.094 16.749h3.626c1.392 0 2.391-0.289 2.995-0.867 0.631-0.578 0.946-1.471 0.946-2.68 0-1.261-0.302-2.168-0.906-2.719s-1.616-0.828-3.034-0.828h-3.626v7.094z"></path>
</symbol>

</svg>
